<?xml version="1.0" encoding="UTF-8"?>
<svg xmlns:xodm="http://www.corel.com/coreldraw/odm/2003" xmlns="http://www.w3.org/2000/svg" xmlns:xlink="http://www.w3.org/1999/xlink" version="1.1" id="Layer_1" x="0px" y="0px" viewBox="0 0 2500 480" style="enable-background:new 0 0 2500 480;" xml:space="preserve">
<style type="text/css">
	.st0{fill:#FFFFFF;}
	.st1{fill:#03316C;}
	.st2{fill:#002E73;}
</style>
<g id="Layer_x0020_1">
	<g id="_2498091556272">
		<path className="st0" d="M207.9,0L0,120v240l207.9,120l207.9-120V120C415.8,120,207.9,0,207.9,0z M207.9,0L0,120v240l207.9,120    l207.9-120V120C415.8,120,207.9,0,207.9,0z"></path>
		<path className="st1" d="M290,386.2h-29.6L225,353.8v-16.7l36.7-35v-55.4l47.9-31.2l54.6,41.2L290,386.2L290,386.2z M167.5,298.7    l5.4-52.1L155,200h105.8l-17.5,46.7l5,52.1h-40.8H167.5z M191.7,353.8l-35.4,32.9h-30l-74.6-130l55-40.8l48.3,30.8v55.4l36.7,35    V353.8L191.7,353.8z M125.8,103.7h163.7l19.6,83.3H106.7C106.7,187.1,125.8,103.7,125.8,103.7z M207.9,0L0,120v240l207.9,120    l207.9-120V120L207.9,0L207.9,0z"></path>
		<path className="st2" d="M649.2,351.3c-55,0-95.4-42.9-95.4-95.8c0-52.9,40.8-97.1,95.8-97.1c35,0,56.7,12.9,73.8,31.7l-26.3,28.3    c-12.9-13.8-26.7-22.9-47.9-22.9c-30.8,0-53.3,26.7-53.3,59.2c0,33.3,22.9,60,55.4,60c20,0,34.6-9.6,47.9-22.9l25.4,25.4    C706.3,336.7,685,351.3,649.2,351.3z"></path>
		<path className="st2" d="M805,351.3h-42.5V158.7H805v45c11.7-27.5,32.9-46.7,65.4-45v45h-2.5c-37.1,0-62.9,24.2-62.9,73.3V351.3    L805,351.3z"></path>
		<polygon className="st2" points="1092.5,157.9 998.7,402.9 955.8,402.9 976.2,351.3 895.8,157.9 941.2,157.9 995.8,300.8     1048.3,157.9   "></polygon>
		<g>
			<path className="st2" d="M1217.5,195c-28.8,0-53.8,23.3-53.8,59.6s25.4,59.6,53.8,59.6c29.2,0,52.9-22.9,52.9-59.6     S1246.2,195,1217.5,195L1217.5,195z M1227.1,350.8c-30.4,0-49.6-15.4-62.5-32.5v84.6h-42.5v-245h42.5v34.6     c13.8-19.2,32.9-34.6,62.5-34.6c43.8,0,86.3,34.6,86.3,96.2C1313.3,315.8,1271.2,350.8,1227.1,350.8z"></path>
		</g>
		<path className="st2" d="M1406.3,198.3v90.8c0,16.3,8.3,22.9,22.9,22.9h16.7V350h-29.2c-30.8,0-52.9-13.8-52.9-54.2v-97.5h-23.3v-36.3    h23.3v-50.8h42.5v50.8h39.6v36.3L1406.3,198.3L1406.3,198.3z"></path>
		<g>
			<path className="st2" d="M1579.6,195c-34.2,0-55.8,26.7-55.8,59.2c0,32.9,23.3,60,56.2,60c34.2,0,55.8-26.7,55.8-59.2     C1636.7,222.1,1612.9,195,1579.6,195L1579.6,195L1579.6,195z M1579.6,351.3c-56.2,0-97.9-42.9-97.9-95.8     c0-53.3,42.1-97.1,98.7-97.1c56.7,0,98.3,42.9,98.3,96.3C1678.7,307.1,1637.1,351.3,1579.6,351.3L1579.6,351.3z"></path>
		</g>
		<g>
			<path className="st2" d="M2084.2,195c-34.2,0-55.8,26.7-55.8,59.2c0,32.9,23.3,60,56.2,60c34.2,0,55.8-26.7,55.8-59.2     C2140.8,222.1,2117.5,195,2084.2,195L2084.2,195L2084.2,195z M2084.2,351.3c-56.2,0-97.9-42.9-97.9-95.8     c0-53.3,42.1-97.1,98.7-97.1c56.7,0,98.3,42.9,98.3,96.3C2183.3,307.1,2141.3,351.3,2084.2,351.3L2084.2,351.3z"></path>
		</g>
		<path className="st2" d="M2435,157.9c40.4,0,65,25.4,65,70.8v122.1h-42.5V241.7c0-29.6-13.7-45-37.5-45c-22.9,0-39.6,16.3-39.6,45.8    v108.8h-42.5V241.7c0-28.7-14.2-45-37.5-45c-23.3,0-39.6,17.5-39.6,46.2v108.3h-42.5V158.3h42.5V190    c12.1-16.3,27.9-31.7,56.2-31.7c26.7,0,45,12.9,55,32.5C2387.5,170.8,2407.1,157.9,2435,157.9L2435,157.9z"></path>
		<polygon className="st2" points="1756.7,312.1 1756.7,333.7 1755.4,335.8 1736.7,346.2 1734.2,346.2 1715.8,335.8 1714.6,333.7     1714.6,312.1 1715.8,310 1734.2,299.6 1736.7,299.6 1755.4,310   "></polygon>
		<path className="st2" d="M1885.4,350.8c-55-1.2-94.6-45-93.8-97.9c0.8-52.9,42.5-96.3,97.9-95c35,0.8,56.7,14.2,73.3,33.3l-26.7,27.9    c-12.5-13.7-26.2-23.8-47.5-24.2c-30.8-0.4-53.7,25.4-54.2,58.3c-0.8,33.3,21.7,60.4,54.2,60.8c20,0.4,35-8.7,48.3-22.1l25,25.8    C1943.3,337.5,1921.7,351.7,1885.4,350.8L1885.4,350.8z"></path>
	</g>
</g>
</svg>
