<?xml version="1.0" encoding="UTF-8"?>
<svg id="Warstwa_1" xmlns="http://www.w3.org/2000/svg" version="1.1" xmlns:xlink="http://www.w3.org/1999/xlink" viewBox="0 0 1200 550">
  <!-- Generator: Adobe Illustrator 29.3.0, SVG Export Plug-In . SVG Version: 2.1.0 Build 146)  -->
  <defs>
    <style>
      .st0 {
        fill: #a3b7ce;
      }

      .st1 {
        fill: url(#Degradado_sin_nombre_924);
      }

      .st2 {
        fill: url(#Degradado_sin_nombre_943);
      }

      .st3 {
        fill: url(#Degradado_sin_nombre_1061);
      }

      .st4 {
        fill: url(#Degradado_sin_nombre_946);
      }

      .st5 {
        fill: url(#Degradado_sin_nombre_941);
      }

      .st6 {
        fill: url(#Degradado_sin_nombre_1064);
      }

      .st7 {
        fill: #123dff;
      }

      .st8 {
        fill: url(#Degradado_sin_nombre_83);
      }

      .st9 {
        fill: url(#Degradado_sin_nombre_947);
      }

      .st10 {
        fill: #fff;
      }

      .st11, .st12 {
        fill: #dc30f8;
      }

      .st13 {
        fill: url(#Degradado_sin_nombre_1066);
      }

      .st14 {
        fill: url(#Degradado_sin_nombre_1062);
      }

      .st15 {
        fill: url(#Degradado_sin_nombre_833);
      }

      .st16 {
        stroke-miterlimit: 10;
      }

      .st16, .st17, .st18 {
        fill: none;
      }

      .st16, .st19, .st12, .st18, .st20 {
        stroke: #fff;
      }

      .st16, .st19, .st12, .st20 {
        stroke-width: 2.2px;
      }

      .st21 {
        fill: #83e2ff;
      }

      .st22 {
        fill: url(#Degradado_sin_nombre_922);
      }

      .st23 {
        fill: url(#Degradado_sin_nombre_921);
      }

      .st24 {
        fill: url(#Degradado_sin_nombre_92);
      }

      .st25, .st20 {
        fill: #a512c4;
      }

      .st26 {
        fill: #f98fa0;
      }

      .st27 {
        fill: #f1f2f2;
      }

      .st28 {
        isolation: isolate;
      }

      .st29 {
        fill: url(#Degradado_sin_nombre_1068);
      }

      .st19 {
        fill: #8c0faa;
      }

      .st19, .st12, .st18, .st20 {
        stroke-linecap: round;
        stroke-linejoin: round;
      }

      .st30 {
        fill: url(#Degradado_sin_nombre_1069);
      }

      .st31 {
        fill: url(#Degradado_sin_nombre_511);
      }

      .st32 {
        fill: url(#Degradado_sin_nombre_1067);
      }

      .st33 {
        fill: url(#Degradado_sin_nombre_512);
      }

      .st34 {
        fill: url(#Degradado_sin_nombre_513);
      }

      .st35 {
        fill: #4768ff;
      }

      .st36 {
        fill: url(#Degradado_sin_nombre_94);
      }

      .st37 {
        fill: url(#Degradado_sin_nombre_1065);
      }

      .st38 {
        fill: #149ac4;
      }

      .st39 {
        fill: url(#Degradado_sin_nombre_1063);
      }

      .st40 {
        fill: url(#Degradado_sin_nombre_832);
      }

      .st41 {
        fill: url(#Degradado_sin_nombre_944);
      }

      .st42 {
        fill: url(#Degradado_sin_nombre_949);
      }

      .st43 {
        fill: url(#Degradado_sin_nombre_831);
      }

      .st44 {
        fill: url(#Degradado_sin_nombre_923);
      }

      .st45 {
        fill: url(#Degradado_sin_nombre_514);
      }

      .st46 {
        fill: url(#Degradado_sin_nombre_942);
      }

      .st47 {
        fill: url(#Degradado_sin_nombre_106);
      }

      .st48 {
        fill: url(#Degradado_sin_nombre_9410);
      }

      .st49 {
        fill: url(#Degradado_sin_nombre_945);
      }

      .st50 {
        fill: url(#Degradado_sin_nombre_51);
      }

      .st18 {
        stroke-width: .8px;
      }

      .st51 {
        fill: #13141e;
      }

      .st52 {
        fill: url(#Degradado_sin_nombre_948);
      }

      .st53 {
        fill: #bfbfbf;
      }

      .st54 {
        fill: #001ea4;
      }

      .st55 {
        fill: #4eceff;
      }
    </style>
    <linearGradient id="Degradado_sin_nombre_83" data-name="Degradado sin nombre 83" x1="683.8" y1="276.3" x2="924.6" y2="471.3" gradientUnits="userSpaceOnUse">
      <stop offset="0" stop-color="#474595"/>
      <stop offset="1" stop-color="#11e4fe"/>
    </linearGradient>
    <linearGradient id="Degradado_sin_nombre_51" data-name="Degradado sin nombre 51" x1="512.6" y1="211.1" x2="518.7" y2="211.1" gradientUnits="userSpaceOnUse">
      <stop offset="0" stop-color="#d6d6d6"/>
      <stop offset="1" stop-color="#ebeaff"/>
    </linearGradient>
    <linearGradient id="Degradado_sin_nombre_511" data-name="Degradado sin nombre 51" x1="291.7" y1="356.3" y2="356.3" xlink:href="#Degradado_sin_nombre_51"/>
    <linearGradient id="Degradado_sin_nombre_512" data-name="Degradado sin nombre 51" x1="413" y1="177.3" x2="424.4" y2="177.3" xlink:href="#Degradado_sin_nombre_51"/>
    <linearGradient id="Degradado_sin_nombre_106" data-name="Degradado sin nombre 106" x1="417.1" y1="173" x2="423.4" y2="173" gradientUnits="userSpaceOnUse">
      <stop offset="0" stop-color="#e47e71"/>
      <stop offset="1" stop-color="#be1e2d"/>
    </linearGradient>
    <linearGradient id="Degradado_sin_nombre_1061" data-name="Degradado sin nombre 106" x1="412.2" y1="180.9" x2="418.6" y2="180.9" xlink:href="#Degradado_sin_nombre_106"/>
    <linearGradient id="Degradado_sin_nombre_1062" data-name="Degradado sin nombre 106" x1="414.1" y1="177" x2="420.9" y2="177" xlink:href="#Degradado_sin_nombre_106"/>
    <linearGradient id="Degradado_sin_nombre_1063" data-name="Degradado sin nombre 106" x1="413.3" y1="178.5" x2="419.7" y2="178.5" xlink:href="#Degradado_sin_nombre_106"/>
    <linearGradient id="Degradado_sin_nombre_1064" data-name="Degradado sin nombre 106" x1="415.4" y1="173.1" x2="422.7" y2="173.1" xlink:href="#Degradado_sin_nombre_106"/>
    <linearGradient id="Degradado_sin_nombre_1065" data-name="Degradado sin nombre 106" x1="412" y1="178.8" x2="418" y2="178.8" xlink:href="#Degradado_sin_nombre_106"/>
    <linearGradient id="Degradado_sin_nombre_1066" data-name="Degradado sin nombre 106" x1="412.4" y1="177.2" x2="418" y2="177.2" xlink:href="#Degradado_sin_nombre_106"/>
    <linearGradient id="Degradado_sin_nombre_1067" data-name="Degradado sin nombre 106" x1="413.3" y1="174.4" x2="421" y2="174.4" xlink:href="#Degradado_sin_nombre_106"/>
    <linearGradient id="Degradado_sin_nombre_1068" data-name="Degradado sin nombre 106" x1="413.2" y1="175.5" x2="418.9" y2="175.5" xlink:href="#Degradado_sin_nombre_106"/>
    <linearGradient id="Degradado_sin_nombre_1069" data-name="Degradado sin nombre 106" x1="412.4" y1="176.3" x2="418.8" y2="176.3" xlink:href="#Degradado_sin_nombre_106"/>
    <linearGradient id="Degradado_sin_nombre_513" data-name="Degradado sin nombre 51" x1="404.4" y1="183.4" x2="414" y2="183.4" xlink:href="#Degradado_sin_nombre_51"/>
    <linearGradient id="Degradado_sin_nombre_514" data-name="Degradado sin nombre 51" x1="397.4" y1="191.5" x2="410.1" y2="191.5" xlink:href="#Degradado_sin_nombre_51"/>
    <linearGradient id="Degradado_sin_nombre_92" data-name="Degradado sin nombre 92" x1="401.9" y1="186.1" x2="411.6" y2="186.1" gradientUnits="userSpaceOnUse">
      <stop offset="0" stop-color="#231f20"/>
      <stop offset="1" stop-color="#414042"/>
    </linearGradient>
    <linearGradient id="Degradado_sin_nombre_921" data-name="Degradado sin nombre 92" x1="404.8" y1="181.3" x2="411.6" y2="181.3" xlink:href="#Degradado_sin_nombre_92"/>
    <linearGradient id="Degradado_sin_nombre_922" data-name="Degradado sin nombre 92" x1="399" y1="189.9" x2="407.6" y2="189.9" xlink:href="#Degradado_sin_nombre_92"/>
    <linearGradient id="Degradado_sin_nombre_94" data-name="Degradado sin nombre 94" x1="398.2" y1="189.4" x2="404.7" y2="189.4" gradientUnits="userSpaceOnUse">
      <stop offset="0" stop-color="#231f20"/>
      <stop offset="1" stop-color="#231f20"/>
    </linearGradient>
    <linearGradient id="Degradado_sin_nombre_941" data-name="Degradado sin nombre 94" x1="399.3" y1="186.5" x2="406" y2="186.5" xlink:href="#Degradado_sin_nombre_94"/>
    <linearGradient id="Degradado_sin_nombre_942" data-name="Degradado sin nombre 94" x1="400.4" y1="184.6" x2="407.5" y2="184.6" xlink:href="#Degradado_sin_nombre_94"/>
    <linearGradient id="Degradado_sin_nombre_943" data-name="Degradado sin nombre 94" x1="397.9" y1="188.1" x2="403.8" y2="188.1" xlink:href="#Degradado_sin_nombre_94"/>
    <linearGradient id="Degradado_sin_nombre_944" data-name="Degradado sin nombre 94" x1="401.9" y1="180" x2="410.4" y2="180" xlink:href="#Degradado_sin_nombre_94"/>
    <linearGradient id="Degradado_sin_nombre_945" data-name="Degradado sin nombre 94" x1="397.9" y1="186.3" x2="403.8" y2="186.3" xlink:href="#Degradado_sin_nombre_94"/>
    <linearGradient id="Degradado_sin_nombre_946" data-name="Degradado sin nombre 94" x1="398.2" y1="185.2" x2="403.8" y2="185.2" xlink:href="#Degradado_sin_nombre_94"/>
    <linearGradient id="Degradado_sin_nombre_947" data-name="Degradado sin nombre 94" x1="399.5" y1="181.4" x2="407.5" y2="181.4" xlink:href="#Degradado_sin_nombre_94"/>
    <linearGradient id="Degradado_sin_nombre_948" data-name="Degradado sin nombre 94" x1="398.2" y1="184.5" x2="404.4" y2="184.5" xlink:href="#Degradado_sin_nombre_94"/>
    <linearGradient id="Degradado_sin_nombre_949" data-name="Degradado sin nombre 94" x1="398.8" y1="183.2" x2="405.2" y2="183.2" xlink:href="#Degradado_sin_nombre_94"/>
    <linearGradient id="Degradado_sin_nombre_923" data-name="Degradado sin nombre 92" x1="401.9" y1="176.8" x2="412.1" y2="176.8" xlink:href="#Degradado_sin_nombre_92"/>
    <linearGradient id="Degradado_sin_nombre_924" data-name="Degradado sin nombre 92" x1="395.5" y1="184.9" x2="407.5" y2="184.9" xlink:href="#Degradado_sin_nombre_92"/>
    <linearGradient id="Degradado_sin_nombre_9410" data-name="Degradado sin nombre 94" x1="403.5" y1="186.6" x2="411.6" y2="186.6" xlink:href="#Degradado_sin_nombre_94"/>
    <clipPath id="clippath">
      <polygon class="st17" points="297.3 421.8 296.9 259.4 518.3 131.6 518.7 294 297.3 421.8"/>
    </clipPath>
    <linearGradient id="Degradado_sin_nombre_831" data-name="Degradado sin nombre 83" x1="561.3" y1="46.3" x2="802.1" y2="241.3" xlink:href="#Degradado_sin_nombre_83"/>
    <linearGradient id="Degradado_sin_nombre_832" data-name="Degradado sin nombre 83" x1="554.5" y1="349.1" x2="795.3" y2="544.1" xlink:href="#Degradado_sin_nombre_83"/>
    <linearGradient id="Degradado_sin_nombre_833" data-name="Degradado sin nombre 83" x1="686.9" y1="120" x2="927.7" y2="315" xlink:href="#Degradado_sin_nombre_83"/>
  </defs>
  <rect class="st17" width="1200" height="550"/>
  <path class="st7" d="M1220.8-10.7H-20.8v567.7h1241.6V-10.7Z"/>
  <path class="st51" d="M105.9,233.1h-29.7l8.1-12.8h29.9l-8.3,12.8Z"/>
  <path class="st35" d="M-32.1,341h877.1l48.6-76.6H16.5l-48.6,76.6Z"/>
  <path class="st35" d="M-201,210.7H143l60.8-95.9H-140.2l-60.8,95.9Z"/>
  <path class="st35" d="M-201,486.3H40.4l48.6-76.6h-241.4l-48.6,76.6Z"/>
  <path class="st11" d="M889.9,392.7h-100.2l15.2-24.2h100.2l-15.2,24.2Z"/>
  <path class="st11" d="M428.1,293.2h-238.1l36.1-57.5h238.1l-36.1,57.5Z"/>
  <path class="st11" d="M57.3,183.6H-43.1l15.2-24.2h100.4l-15.2,24.2Z"/>
  <path class="st10" d="M286.9,314.2h-83l.9-1.5h83l-.9,1.5Z"/>
  <path class="st51" d="M418.7,398h-117.1l1.1-1.5h116.9l-.9,1.5Z"/>
  <path class="st10" d="M-11.6,328.3h153.6l-31.7,50.1H-43.1l31.5-50.1Z"/>
  <path class="st51" d="M135.2,385.9h117.1l-1.1,1.5h-117l.9-1.5h0Z"/>
  <path class="st51" d="M811.5,274.2h117.1l-1.1,1.5h-117l.9-1.5h0Z"/>
  <path class="st10" d="M330.4,378.7h68.7l-.9,1.5h-68.7l.9-1.5Z"/>
  <path class="st10" d="M303,166.5h68.7l-.9,1.5h-68.7l.9-1.5Z"/>
  <path class="st10" d="M-10.6,392.1H58.1l-.9,1.5H-11.5l.9-1.5Z"/>
  <path class="st10" d="M811.4,315.3h68.7l-.9,1.5h-68.7l.9-1.5Z"/>
  <path class="st35" d="M263.7,208.7h123.5l16.1-25.7h-123.3l-16.3,25.7Z"/>
  <path class="st35" d="M121.7,426h138.7l18.1-28.9h-138.4l-18.3,28.9h-.1Z"/>
  <path class="st10" d="M38,280.9h101.3l13.2-21.1H51.3l-13.4,21.1h0Z"/>
  <path class="st10" d="M731.8,402.7h101.3l13.2-21.1h-101.2l-13.4,21.1h0Z"/>
  <path class="st10" d="M279.7,372.5h101.3l13.2-21.1h-101.2l-13.4,21.1h.1Z"/>
  <path class="st51" d="M219.7,421.7h-29.7l8.1-12.8h29.9l-8.3,12.8Z"/>
  <path class="st51" d="M947.6,309.9h-38l10.4-16.4h38.1l-10.6,16.4h.1Z"/>
  <path class="st11" d="M199.7,374.1h-38l10.4-16.4h38.1l-10.6,16.4h.1Z"/>
  <path class="st11" d="M861.2,253.9h-38l10.4-16.4h38.1l-10.6,16.4h.1Z"/>
  <path class="st11" d="M111.4,345.8h-61.9l16.9-26.7h62.2l-17.3,26.7h.2Z"/>
  <path class="st16" d="M528,368.5c22.2,12.8,48,20.1,75.5,20.1,83.9,0,151.9-68,151.9-151.9s-68-151.9-151.9-151.9-44.8,4.1-63.7,13.9-21.2,12.4-21.2,12.4"/>
  <g>
    <polygon class="st38" points="768.7 294.2 768.6 333.7 732.2 354.9 731.9 355 732.1 315.5 732.3 315.4 739.2 311.3 739.2 311.3 768.7 294.2"/>
    <polygon class="st8" points="732.3 315.4 732.1 315.5 731.7 315.3 732 315.2 732.3 315.4"/>
    <polygon class="st21" points="768.7 294.2 739.2 311.3 739.2 311.3 732.3 315.4 732 315.2 731.7 315.3 697.7 295.7 697.9 295.5 734.3 274.3 768.7 294.2"/>
    <polygon class="st55" points="732.1 315.5 731.9 355 697.5 335.2 697.7 295.7 731.7 315.3 732.1 315.5"/>
  </g>
  <g>
    <polygon class="st19" points="617.9 230.2 604.1 238.2 604.1 238.2 603.5 238.5 603.3 317.6 603.9 317.2 676.6 274.9 676.8 195.9 617.9 230.2"/>
    <polygon class="st12" points="608 156.1 535.3 198.5 534.7 198.8 602.9 238.1 603.5 238.5 604.1 238.2 617.9 230.2 676.8 195.9 608 156.1"/>
    <polygon class="st20" points="603.5 238.5 603.3 317.6 534.5 277.8 534.7 198.8 602.9 238.1 603.5 238.5"/>
  </g>
  <g class="st28">
    <polygon class="st50" points="518.7 294 513.1 290.7 512.6 128.3 518.3 131.6 518.7 294"/>
    <polygon class="st31" points="297.3 421.8 291.7 418.5 513.1 290.7 518.7 294 297.3 421.8"/>
    <polygon class="st53" points="296.9 259.4 291.3 256.1 512.6 128.3 518.3 131.6 296.9 259.4"/>
    <path class="st33" d="M418.8,173.6c0-1.1-.4-1.8-1-2.2l5.6,3.3c.6.4,1,1.1,1,2.2,0,2.1-1.5,4.8-3.4,5.8s-1.8.6-2.4.2l-5.6-3.3c.6.4,1.5.3,2.4-.2,1.9-1.1,3.4-3.7,3.4-5.8Z"/>
    <path class="st47" d="M417.1,171.2c.2,0,.5,0,.7.2l5.6,3.3c-.2-.1-.4-.2-.7-.2-1.9-1.1-3.8-2.2-5.6-3.3Z"/>
    <path class="st3" d="M413,179.7c-.3-.2-.6-.5-.8-.9,1.9,1.1,3.8,2.2,5.6,3.3.2.4.4.7.8.9-1.7-1-3.9-2.3-5.6-3.3Z"/>
    <path class="st14" d="M415.3,174.7c0-.4-.1-.6-.3-.7l5.6,3.3c.2.1.3.4.3.7,0,.7-.5,1.6-1.2,2l-5.6-3.3c.6-.4,1.2-1.3,1.2-2Z"/>
    <path class="st39" d="M413.3,176.8c.2.1.5.1.8,0l5.6,3.3c-.3.2-.6.2-.8,0-1.7-1-3.9-2.3-5.6-3.3Z"/>
    <path class="st26" d="M414.9,174l5.6,3.3c-.2-.1-.5-.1-.8,0l-5.6-3.3c.3-.2.6-.2.8,0Z"/>
    <path class="st6" d="M415.4,171.7c.6-.4,1.2-.5,1.7-.5,1.9,1.1,3.8,2.2,5.6,3.3-.5,0-1.1,0-1.7.5-1.7-1-3.9-2.3-5.6-3.3Z"/>
    <path class="st26" d="M418.9,180.1l-5.6-3.3c-.2-.1-.3-.4-.3-.7,0-.7.5-1.6,1.1-2l5.6,3.3c-.6.4-1.2,1.3-1.1,2s.1.6.3.7Z"/>
    <path class="st10" d="M419.7,177.4c.6-.4,1.2,0,1.2.7s-.5,1.6-1.2,2-1.2,0-1.2-.7.5-1.6,1.1-2Z"/>
    <path class="st37" d="M412,177.5c0-.6.1-1.3.3-1.9,1.9,1.1,3.8,2.2,5.6,3.3-.2.6-.3,1.3-.3,1.9s0,.9.2,1.2c-1.9-1.1-3.8-2.2-5.6-3.3-.1-.3-.2-.8-.2-1.2Z"/>
    <path class="st13" d="M412.4,175.5c1.9,1.1,3.8,2.2,5.6,3.3,0,0,0,.1,0,.2-1.9-1.1-3.8-2.2-5.6-3.3,0,0,0-.1,0-.2Z"/>
    <path class="st32" d="M413.3,173.8c.6-.9,1.3-1.6,2.1-2.1l5.6,3.3c-.8.5-1.5,1.2-2.1,2.1-1.9-1.1-3.8-2.2-5.6-3.3Z"/>
    <path class="st29" d="M413.2,173.9c0,0,0-.1,0-.1,1.9,1.1,3.8,2.2,5.6,3.3,0,0,0,0,0,.1-1.9-1.1-3.8-2.2-5.6-3.3Z"/>
    <path class="st30" d="M413.2,173.9c1.9,1.1,3.8,2.2,5.6,3.3-.3.5-.6,1-.8,1.6-1.9-1.1-3.8-2.2-5.6-3.3.2-.5.5-1.1.8-1.6Z"/>
    <path class="st34" d="M408.4,179.3c0-2-.7-3.5-1.9-4.1l5.6,3.3c1.2.7,1.9,2.1,1.9,4.1,0,3.1-1.6,6.6-3.9,9.1-1.9-1.1-3.8-2.2-5.6-3.3,2.3-2.5,3.9-6,3.9-9.1Z"/>
    <path class="st45" d="M401.9,190.4c.9-.5,1.7-1.2,2.5-2,1.9,1.1,3.8,2.2,5.6,3.3-.8.8-1.6,1.5-2.5,2-1.8,1-3.4,1.1-4.6.4l-5.6-3.3c1.2.7,2.8.6,4.6-.4Z"/>
    <path class="st24" d="M401.9,188c2.2-1.3,4.1-4.4,4-7,1.9,1.1,3.8,2.2,5.6,3.3,0,2.6-1.8,5.7-4,7-1.7-1-3.9-2.3-5.6-3.3Z"/>
    <path class="st23" d="M406,180.9c0-1.3-.5-2.2-1.2-2.6l5.6,3.3c.7.4,1.2,1.3,1.2,2.6-1.9-1.1-3.8-2.2-5.6-3.3Z"/>
    <path class="st22" d="M399,188.2c.7.4,1.8.4,2.9-.3l5.6,3.3c-1.1.7-2.1.7-2.9.3-1.7-1-3.9-2.3-5.6-3.3Z"/>
    <path class="st36" d="M399,188.2c-.4-.2-.7-.6-.9-1,1.9,1.1,3.8,2.2,5.6,3.3.2.5.5.8.9,1-1.7-1-3.9-2.3-5.6-3.3Z"/>
    <path class="st5" d="M399.3,184.9c.3.2.7.1,1.1-.1l5.6,3.3c-.4.2-.8.3-1.1.1-1.7-1-3.9-2.3-5.6-3.3Z"/>
    <path class="st46" d="M401.9,182.2c0-.5-.2-.8-.4-1l5.6,3.3c.3.2.4.5.4,1,0,1-.7,2.1-1.5,2.6l-5.6-3.3c.8-.5,1.5-1.7,1.5-2.6Z"/>
    <path class="st2" d="M398.2,187.2c-.2-.4-.3-.9-.3-1.4,1.9,1.1,3.8,2.2,5.6,3.3,0,.6.1,1,.3,1.4-.9-.5-1.9-1.1-2.8-1.6l-1.5-.8c-.2-.1-.5-.3-.7-.4s-.5-.2-.7-.4Z"/>
    <path class="st27" d="M401.5,181.2l5.6,3.3c-.3-.2-.7-.1-1.1.1l-5.6-3.3c.4-.2.8-.3,1.1-.1Z"/>
    <path class="st41" d="M401.9,178.6c1.1-.7,2.1-.7,2.9-.3l5.6,3.3c-.7-.4-1.8-.4-2.9.3-1.7-1-3.9-2.3-5.6-3.3Z"/>
    <path class="st27" d="M405,188.2l-5.6-3.3c-.3-.2-.4-.5-.4-1,0-1,.7-2.1,1.5-2.6l5.6,3.3c-.8.5-1.5,1.7-1.5,2.6s.2.8.4,1Z"/>
    <path class="st49" d="M397.9,185.6c0-.7.1-1.3.3-2,1.9,1.1,3.8,2.2,5.6,3.3-.2.7-.3,1.4-.3,2s0,0,0,.1c-1.9-1.1-3.8-2.2-5.6-3.3,0,0,0,0,0-.1Z"/>
    <path class="st4" d="M398.2,183.5c1.9,1.1,3.8,2.2,5.6,3.3,0,0,0,0,0,0-1.9-1.1-3.8-2.2-5.6-3.3,0,0,0,0,0,0Z"/>
    <path class="st9" d="M399.5,180.9c.7-.9,1.5-1.7,2.4-2.3l5.6,3.3c-.9.5-1.7,1.3-2.4,2.3-1.9-1.1-3.8-2.2-5.6-3.3Z"/>
    <path class="st52" d="M398.2,183.5c.1-.5.3-.9.6-1.4,1.9,1.1,3.8,2.2,5.6,3.3-.2.4-.4.9-.6,1.4-1.9-1.1-3.8-2.2-5.6-3.3Z"/>
    <path class="st42" d="M399.5,180.9c1.9,1.1,3.8,2.2,5.6,3.3-.3.4-.5.8-.8,1.3-1.9-1.1-3.8-2.2-5.6-3.3.2-.4.5-.9.8-1.3Z"/>
    <path class="st44" d="M406.5,175.1l5.6,3.3c-1.2-.7-2.8-.6-4.6.5l-5.6-3.3c1.8-1,3.4-1.1,4.6-.5Z"/>
    <path class="st1" d="M403,194.1l-5.6-3.3c-1.2-.7-1.9-2.1-1.9-4.1,0-4.1,2.9-9.1,6.4-11.1l5.6,3.3c-3.6,2.1-6.4,7-6.4,11.1,0,2,.7,3.5,1.9,4.1Z"/>
    <path class="st10" d="M518.6,111.1c3.7-2.2,6.8-.4,6.8,3.9l.5,175c0,4.3-3,9.6-6.8,11.7l-222.2,128.3c-3.7,2.2-6.8.4-6.8-3.9l-.5-175c0-4.3,3-9.6,6.8-11.8l222.2-128.3ZM518.7,294l-.5-162.4-221.4,127.8.5,162.4,221.4-127.8M407.5,178.9c-3.6,2.1-6.4,7-6.4,11.1s2.9,5.7,6.5,3.7c3.6-2.1,6.4-7,6.4-11.1s-2.9-5.7-6.5-3.7M421,175c-1.9,1.1-3.4,3.7-3.4,5.8,0,2.1,1.5,3,3.4,1.9s3.4-3.7,3.4-5.8-1.5-3-3.4-1.9"/>
    <path class="st25" d="M421,175c1.9-1.1,3.4-.2,3.4,1.9,0,2.1-1.5,4.8-3.4,5.8s-3.4.2-3.4-1.9,1.5-4.8,3.4-5.8ZM419.7,180c.6-.4,1.2-1.3,1.2-2s-.5-1-1.2-.7-1.2,1.3-1.1,2,.5,1,1.2.7"/>
    <path class="st27" d="M406,184.6c.8-.5,1.5,0,1.5.9s-.7,2.1-1.5,2.6-1.5,0-1.5-.9.7-2.1,1.5-2.6Z"/>
    <path class="st48" d="M407.5,181.9c2.2-1.3,4.1-.3,4.1,2.3,0,2.6-1.8,5.7-4,7-2.2,1.3-4.1.3-4.1-2.3s1.8-5.7,4-7ZM406,188.1c.8-.5,1.5-1.7,1.5-2.6s-.7-1.4-1.5-.9-1.5,1.7-1.5,2.6.7,1.3,1.5.9"/>
    <path class="st54" d="M407.5,178.9c3.6-2.1,6.5-.4,6.5,3.7s-2.9,9.1-6.4,11.1-6.4.4-6.5-3.7c0-4.1,2.9-9.1,6.4-11.1ZM407.6,191.2c2.2-1.3,4.1-4.4,4-7,0-2.6-1.8-3.6-4.1-2.3-2.2,1.3-4,4.4-4,7s1.8,3.6,4.1,2.3"/>
    <polygon class="st21" points="297.3 421.8 291.7 418.5 291.3 256.1 296.9 259.4 297.3 421.8"/>
    <polygon class="st54" points="297.3 421.8 296.9 258.8 519.1 130.4 519.6 293.5 297.3 421.8"/>
    <path class="st38" d="M292.1,430.6l-5.6-3.3c-1.2-.7-2-2.2-2-4.3l-.5-175,5.6,3.3.5,175c0,2.1.8,3.6,2,4.3Z"/>
    <path class="st38" d="M523.5,110.7c-1.2-.7-3-.6-4.8.5l-222.2,128.3c-3.7,2.2-6.8,7.4-6.8,11.7l-5.6-3.3c0-4.3,3-9.6,6.8-11.7l222.2-128.3c1.9-1.1,3.6-1.2,4.8-.5l5.6,3.3Z"/>
  </g>
  <g class="st28">
    <polygon class="st38" points="464.6 444.7 464.6 451.2 491.4 466.8 491.3 460.3 464.6 444.7"/>
    <polygon class="st0" points="540.7 408.8 540.7 415.3 567.4 430.8 567.4 424.3 540.7 408.8"/>
    <polygon class="st0" points="567.4 424.3 567.4 430.8 575.6 435.6 575.6 429.1 567.4 424.3"/>
    <polygon class="st38" points="464.6 452.7 464.6 459.2 540.7 415.3 540.7 408.8 464.6 452.7"/>
    <polygon class="st0" points="529.4 441.5 529.4 448 567.4 426 567.4 419.5 529.4 441.5"/>
    <polygon class="st38" points="537.6 446.2 537.6 452.8 575.6 430.8 575.6 424.3 537.6 446.2"/>
    <polygon class="st0" points="529.4 441.5 529.4 448 537.6 452.8 537.6 446.2 529.4 441.5"/>
    <polygon class="st55" points="529.4 441.5 537.6 446.2 575.6 424.3 567.4 419.5 529.4 441.5"/>
    <polygon class="st0" points="491.3 463.5 491.4 470 529.4 448 529.4 441.5 491.3 463.5"/>
    <polygon class="st38" points="499.5 468.2 499.5 474.7 537.6 452.8 537.6 446.2 499.5 468.2"/>
    <polygon class="st0" points="491.3 463.5 491.4 470 499.5 474.7 499.5 468.2 491.3 463.5"/>
    <polygon class="st21" points="464.6 447.9 491.3 463.5 529.4 441.5 567.4 419.5 540.7 404 464.6 447.9"/>
    <polygon class="st38" points="491.3 463.5 499.5 468.2 537.6 446.2 529.4 441.5 491.3 463.5"/>
    <polygon class="st0" points="515.4 312.7 515.4 319.2 528.2 326.6 528.2 320.1 515.4 312.7"/>
    <polygon class="st0" points="495.1 324.4 495.1 330.9 515.4 319.2 515.4 312.7 495.1 324.4"/>
    <polygon class="st0" points="533.1 323 533.1 329.5 545.9 336.9 545.9 330.4 533.1 323"/>
    <polygon class="st0" points="512.8 334.7 512.8 341.2 533.1 329.5 533.1 323 512.8 334.7"/>
    <polygon class="st0" points="488.9 328 488.9 334.5 501.7 341.9 501.7 335.4 488.9 328"/>
    <polygon class="st0" points="468.6 339.7 468.6 346.2 488.9 334.5 488.9 328 468.6 339.7"/>
    <polygon class="st0" points="551.7 332.8 551.7 339.3 564.5 346.7 564.5 340.2 551.7 332.8"/>
    <polygon class="st0" points="531.4 344.5 531.4 351 551.7 339.3 551.7 332.8 531.4 344.5"/>
    <polygon class="st0" points="506.6 338.3 506.7 344.8 519.4 352.2 519.4 345.7 506.6 338.3"/>
    <polygon class="st0" points="486.3 350 486.3 356.5 506.7 344.8 506.6 338.3 486.3 350"/>
    <polygon class="st0" points="570 343.5 570.1 350 582.8 357.4 582.8 350.9 570 343.5"/>
    <polygon class="st0" points="549.7 355.2 549.7 361.7 570.1 350 570 343.5 549.7 355.2"/>
    <polygon class="st0" points="525.2 348.1 525.2 354.6 538 362 538 355.5 525.2 348.1"/>
    <polygon class="st0" points="504.9 359.8 504.9 366.3 525.2 354.6 525.2 348.1 504.9 359.8"/>
    <polygon class="st0" points="480.4 354.2 480.4 360.7 493.1 368.1 493.1 361.6 480.4 354.2"/>
    <polygon class="st0" points="460 365.9 460.1 372.4 480.4 360.7 480.4 354.2 460 365.9"/>
    <polygon class="st0" points="543.6 358.7 543.6 365.3 556.4 372.7 556.3 366.2 543.6 358.7"/>
    <polygon class="st0" points="523.2 370.5 523.3 377 543.6 365.3 543.6 358.7 523.2 370.5"/>
    <polygon class="st0" points="498.9 364 498.9 370.5 511.7 377.9 511.7 371.4 498.9 364"/>
    <polygon class="st0" points="571.7 365.4 571.8 371.9 584.5 379.3 584.5 372.8 571.7 365.4"/>
    <polygon class="st0" points="478.6 375.7 478.6 382.2 498.9 370.5 498.9 364 478.6 375.7"/>
    <polygon class="st0" points="453.9 369.4 453.9 376 466.7 383.4 466.6 376.9 453.9 369.4"/>
    <polygon class="st0" points="551.4 377.1 551.4 383.6 571.8 371.9 571.7 365.4 551.4 377.1"/>
    <polygon class="st0" points="433.5 381.2 433.6 387.7 453.9 376 453.9 369.4 433.5 381.2"/>
    <polygon class="st0" points="517.3 374.6 517.3 381.1 530.1 388.6 530.1 382.1 517.3 374.6"/>
    <polygon class="st0" points="496.9 386.4 497 392.9 517.3 381.1 517.3 374.6 496.9 386.4"/>
    <polygon class="st0" points="472.4 379.2 472.4 385.8 485.2 393.2 485.2 386.7 472.4 379.2"/>
    <polygon class="st0" points="547.5 379.9 547.5 386.4 559.4 393.3 559.3 386.8 547.5 379.9"/>
    <path class="st38" d="M662.3,390.5c0,2-1.3,4-4,5.5l-216.8,125.2v-6.5s216.8-125.2,216.8-125.2c2.6-1.5,3.9-3.5,3.9-5.5v6.5Z"/>
    <polygon class="st0" points="452.1 391 452.1 397.5 472.4 385.8 472.4 379.2 452.1 391"/>
    <polygon class="st0" points="427.9 384.4 427.9 391 440.7 398.4 440.7 391.9 427.9 384.4"/>
    <polygon class="st0" points="407.5 396.2 407.6 402.7 427.9 391 427.9 384.4 407.5 396.2"/>
    <polygon class="st0" points="490.8 389.9 490.8 396.4 503.6 403.9 503.6 397.4 490.8 389.9"/>
    <polygon class="st0" points="446.4 394.3 446.4 400.8 459.2 408.2 459.2 401.7 446.4 394.3"/>
    <polygon class="st0" points="470.5 401.7 470.5 408.2 490.8 396.4 490.8 389.9 470.5 401.7"/>
    <polygon class="st0" points="426.1 406 426.1 412.5 446.4 400.8 446.4 394.3 426.1 406"/>
    <polygon class="st0" points="401.4 399.7 401.4 406.3 414.2 413.7 414.2 407.2 401.4 399.7"/>
    <polygon class="st0" points="381 411.5 381.1 418 401.4 406.3 401.4 399.7 381 411.5"/>
    <polygon class="st0" points="464.8 404.9 464.8 411.4 477.6 418.9 477.6 412.4 464.8 404.9"/>
    <polygon class="st0" points="357.4 405.3 357.4 411.8 370.2 419.3 370.2 412.8 357.4 405.3"/>
    <polygon class="st0" points="444.5 416.7 444.5 423.2 464.8 411.4 464.8 404.9 444.5 416.7"/>
    <polygon class="st0" points="337.1 417.1 337.1 423.6 357.4 411.8 357.4 405.3 337.1 417.1"/>
    <polygon class="st0" points="419.9 409.6 419.9 416.1 432.7 423.5 432.7 417 419.9 409.6"/>
    <polygon class="st0" points="399.6 421.3 399.6 427.8 419.9 416.1 419.9 409.6 399.6 421.3"/>
    <polygon class="st0" points="375.1 415.6 375.1 422.1 387.9 429.6 387.9 423.1 375.1 415.6"/>
    <polygon class="st0" points="354.8 427.4 354.8 433.9 375.1 422.1 375.1 415.6 354.8 427.4"/>
    <polygon class="st0" points="438.3 420.2 438.3 426.7 451.1 434.2 451.1 427.7 438.3 420.2"/>
    <polygon class="st0" points="330.9 420.6 330.9 427.2 343.7 434.6 343.7 428.1 330.9 420.6"/>
    <polygon class="st0" points="418 432 418 438.5 438.3 426.7 438.3 420.2 418 432"/>
    <polygon class="st0" points="310.6 432.4 310.6 438.9 330.9 427.2 330.9 420.6 310.6 432.4"/>
    <polygon class="st0" points="393.7 425.4 393.7 431.9 406.4 439.4 406.4 432.9 393.7 425.4"/>
    <polygon class="st0" points="373.3 437.2 373.4 443.7 393.7 431.9 393.7 425.4 373.3 437.2"/>
    <polygon class="st0" points="348.6 430.9 348.6 437.4 361.4 444.9 361.4 438.4 348.6 430.9"/>
    <polygon class="st0" points="328.3 442.7 328.3 449.2 348.6 437.4 348.6 430.9 328.3 442.7"/>
    <polygon class="st0" points="412 436.1 412 442.6 424.8 450 424.8 443.5 412 436.1"/>
    <polygon class="st0" points="391.7 447.8 391.7 454.3 412 442.6 412 436.1 391.7 447.8"/>
    <polygon class="st0" points="367.2 440.7 367.2 447.2 379.9 454.7 379.9 448.2 367.2 440.7"/>
    <polygon class="st0" points="346.8 452.5 346.9 459 367.2 447.2 367.2 440.7 346.8 452.5"/>
    <polygon class="st0" points="420.3 453.4 420.3 459.9 547.5 386.4 547.5 379.9 420.3 453.4"/>
    <polygon class="st0" points="385.5 451.4 385.5 457.9 398.3 465.3 398.3 458.8 385.5 451.4"/>
    <polygon class="st0" points="365.2 463.1 365.2 469.6 385.5 457.9 385.5 451.4 365.2 463.1"/>
    <polygon class="st0" points="413.7 456.1 413.7 462.6 426.5 470 426.5 463.5 413.7 456.1"/>
    <polygon class="st0" points="393.4 467.8 393.4 474.3 413.7 462.6 413.7 456.1 393.4 467.8"/>
    <path class="st10" d="M512.9,305c5.3-3,13.7-3,19,0l126.6,73.6c5.2,3,5.2,8,0,11l-216.8,125.2c-5.3,3-13.7,3-19,0l-126.6-73.6c-5.2-3-5.2-8,0-11l216.8-125.2ZM491.3,465l8.2,4.8,38-22,38.1-22-8.2-4.8-26.8-15.6-76.1,43.9,26.8,15.6M432.1,460.3l127.2-73.4-11.8-6.9-127.2,73.4,11.8,6.9M464.8,404.9l-20.3,11.7,12.8,7.4,20.3-11.7-12.8-7.4M438.3,420.2l-20.3,11.7,12.8,7.4,20.3-11.7-12.8-7.4M517.3,374.6l-20.3,11.7,12.8,7.4,20.3-11.7-12.8-7.4M515.4,312.7l-20.3,11.7,12.8,7.4,20.3-11.7-12.8-7.4M341.1,450.1l20.3-11.7-12.8-7.4-20.3,11.7,12.8,7.4M401.4,399.7l-20.3,11.7,12.8,7.4,20.3-11.7-12.8-7.4M375.1,415.6l-20.3,11.7,12.8,7.4,20.3-11.7-12.8-7.4M378,470.6l20.3-11.7-12.8-7.4-20.3,11.7,12.8,7.4M490.8,389.9l-20.3,11.7,12.8,7.4,20.3-11.7-12.8-7.4M488.9,328l-20.3,11.7,12.8,7.4,20.3-11.7-12.8-7.4M427.9,384.4l-20.3,11.7,12.8,7.4,20.3-11.7-12.8-7.4M412,436.1l-20.3,11.7,12.8,7.4,20.3-11.7-12.8-7.4M543.6,358.7l-20.3,11.7,12.8,7.4,20.3-11.7-12.8-7.4M570,343.5l-20.3,11.7,12.8,7.4,20.3-11.7-12.8-7.4M323.4,439.8l20.3-11.7-12.8-7.4-20.3,11.7,12.8,7.4M357.4,405.3l-20.3,11.7,12.8,7.4,20.3-11.7-12.8-7.4M525.2,348.1l-20.3,11.7,12.8,7.4,20.3-11.7-12.8-7.4M551.7,332.8l-20.3,11.7,12.8,7.4,20.3-11.7-12.8-7.4M533.1,323l-20.3,11.7,12.8,7.4,20.3-11.7-12.8-7.4M506.6,338.3l-20.3,11.7,12.8,7.4,20.3-11.7-12.8-7.4M564.2,384.6l20.3-11.7-12.8-7.4-20.3,11.7,12.8,7.4M453.9,369.4l-20.3,11.7,12.8,7.4,20.3-11.7-12.8-7.4M359.6,459.9l20.3-11.7-12.8-7.4-20.3,11.7,12.8,7.4M419.9,409.6l-20.3,11.7,12.8,7.4,20.3-11.7-12.8-7.4M498.9,364l-20.3,11.7,12.8,7.4,20.3-11.7-12.8-7.4M446.4,394.3l-20.3,11.7,12.8,7.4,20.3-11.7-12.8-7.4M393.7,425.4l-20.3,11.7,12.8,7.4,20.3-11.7-12.8-7.4M480.4,354.2l-20.3,11.7,12.8,7.4,20.3-11.7-12.8-7.4M472.4,379.2l-20.3,11.7,12.8,7.4,20.3-11.7-12.8-7.4M406.2,475.2l20.3-11.7-12.8-7.4-20.3,11.7,12.8,7.4"/>
    <path class="st38" d="M441.6,521.2c-5.2,3-13.7,3-19,0l-126.6-73.6c-2.6-1.5-3.9-3.5-3.9-5.5v-6.5c0,2,1.3,3.9,3.9,5.5l126.6,73.6c5.2,3,13.7,3,19,0v6.5Z"/>
    <polygon class="st38" points="507.9 327.1 507.9 333.6 528.2 321.8 528.2 315.3 507.9 327.1"/>
    <polygon class="st38" points="495.1 319.6 495.1 326.1 507.9 333.6 507.9 327.1 495.1 319.6"/>
    <polygon class="st21" points="495.1 319.6 507.9 327.1 528.2 315.3 515.4 307.9 495.1 319.6"/>
    <polygon class="st38" points="525.6 337.3 525.6 343.9 545.9 332.1 545.9 325.6 525.6 337.3"/>
    <polygon class="st38" points="512.8 329.9 512.8 336.4 525.6 343.9 525.6 337.3 512.8 329.9"/>
    <polygon class="st38" points="481.4 342.3 481.4 348.9 501.7 337.1 501.7 330.6 481.4 342.3"/>
    <polygon class="st38" points="468.6 334.9 468.6 341.4 481.4 348.9 481.4 342.3 468.6 334.9"/>
    <polygon class="st38" points="544.1 347.1 544.2 353.7 564.5 341.9 564.5 335.4 544.1 347.1"/>
    <polygon class="st38" points="531.4 339.7 531.4 346.2 544.2 353.7 544.1 347.1 531.4 339.7"/>
    <polygon class="st38" points="517.7 362.4 517.7 369 538 357.2 538 350.7 517.7 362.4"/>
    <polygon class="st38" points="486.3 345.2 486.3 351.7 499.1 359.1 499.1 352.6 486.3 345.2"/>
    <polygon class="st21" points="486.3 345.2 499.1 352.6 519.4 340.9 506.6 333.5 486.3 345.2"/>
    <polygon class="st38" points="499.1 352.6 499.1 359.1 519.4 347.4 519.4 340.9 499.1 352.6"/>
    <polygon class="st38" points="562.5 357.8 562.5 364.3 582.8 352.6 582.8 346.1 562.5 357.8"/>
    <polygon class="st38" points="549.7 350.4 549.7 356.9 562.5 364.3 562.5 357.8 549.7 350.4"/>
    <polygon class="st21" points="549.7 350.4 562.5 357.8 582.8 346.1 570 338.7 549.7 350.4"/>
    <polygon class="st38" points="536 373.1 536 379.6 556.4 367.9 556.3 361.4 536 373.1"/>
    <polygon class="st38" points="504.9 355 504.9 361.5 517.7 369 517.7 362.4 504.9 355"/>
    <polygon class="st38" points="460 361.1 460.1 367.6 472.8 375 472.8 368.5 460 361.1"/>
    <polygon class="st21" points="460 361.1 472.8 368.5 493.1 356.8 480.4 349.4 460 361.1"/>
    <polygon class="st38" points="472.8 368.5 472.8 375 493.1 363.3 493.1 356.8 472.8 368.5"/>
    <polygon class="st21" points="523.2 365.7 536 373.1 556.3 361.4 543.6 354 523.2 365.7"/>
    <polygon class="st38" points="523.2 365.7 523.3 372.2 536 379.6 536 373.1 523.2 365.7"/>
    <polygon class="st38" points="509.7 389 509.8 395.5 530.1 383.8 530.1 377.3 509.7 389"/>
    <polygon class="st21" points="478.6 370.9 491.4 378.3 511.7 366.6 498.9 359.2 478.6 370.9"/>
    <polygon class="st38" points="491.4 378.3 491.4 384.8 511.7 373.1 511.7 366.6 491.4 378.3"/>
    <polygon class="st38" points="478.6 370.9 478.6 377.4 491.4 384.8 491.4 378.3 478.6 370.9"/>
    <polygon class="st38" points="551.4 372.3 564.2 379.8 584.5 368 571.7 360.6 551.4 372.3"/>
    <polygon class="st38" points="551.4 372.3 551.4 378.8 564.2 386.3 564.2 379.8 551.4 372.3"/>
    <polygon class="st38" points="564.2 379.8 564.2 386.3 584.5 374.5 584.5 368 564.2 379.8"/>
    <polygon class="st38" points="433.5 376.4 433.6 382.9 446.3 390.3 446.3 383.8 433.5 376.4"/>
    <polygon class="st21" points="433.5 376.4 446.3 383.8 466.6 372.1 453.9 364.7 433.5 376.4"/>
    <polygon class="st38" points="446.3 383.8 446.3 390.3 466.7 378.6 466.6 372.1 446.3 383.8"/>
    <polygon class="st21" points="496.9 381.6 509.7 389 530.1 377.3 517.3 369.8 496.9 381.6"/>
    <polygon class="st38" points="496.9 381.6 497 388.1 509.8 395.5 509.7 389 496.9 381.6"/>
    <polygon class="st38" points="483.3 404.3 483.3 410.8 503.6 399.1 503.6 392.6 483.3 404.3"/>
    <polygon class="st38" points="452.1 386.2 452.1 392.7 464.9 400.1 464.9 393.6 452.1 386.2"/>
    <polygon class="st21" points="452.1 386.2 464.9 393.6 485.2 381.9 472.4 374.5 452.1 386.2"/>
    <polygon class="st38" points="464.9 393.6 464.9 400.1 485.2 388.4 485.2 381.9 464.9 393.6"/>
    <polygon class="st38" points="420.3 398.8 420.4 405.3 440.7 393.6 440.7 387.1 420.3 398.8"/>
    <polygon class="st38" points="407.5 391.4 407.6 397.9 420.4 405.3 420.3 398.8 407.5 391.4"/>
    <polygon class="st38" points="393.8 414.1 393.9 420.6 414.2 408.9 414.2 402.4 393.8 414.1"/>
    <polygon class="st38" points="470.5 396.9 470.5 403.4 483.3 410.8 483.3 404.3 470.5 396.9"/>
    <polygon class="st21" points="470.5 396.9 483.3 404.3 503.6 392.6 490.8 385.1 470.5 396.9"/>
    <polygon class="st38" points="457.3 419.3 457.3 425.8 477.6 414.1 477.6 407.6 457.3 419.3"/>
    <polygon class="st21" points="426.1 401.2 438.9 408.6 459.2 396.9 446.4 389.5 426.1 401.2"/>
    <polygon class="st38" points="438.9 408.6 438.9 415.1 459.2 403.4 459.2 396.9 438.9 408.6"/>
    <polygon class="st38" points="426.1 401.2 426.1 407.7 438.9 415.1 438.9 408.6 426.1 401.2"/>
    <polygon class="st21" points="381 406.7 393.8 414.1 414.2 402.4 401.4 394.9 381 406.7"/>
    <polygon class="st38" points="381 406.7 381.1 413.2 393.9 420.6 393.8 414.1 381 406.7"/>
    <polygon class="st38" points="367.6 430 367.6 436.5 387.9 424.8 387.9 418.3 367.6 430"/>
    <polygon class="st38" points="444.5 411.9 444.5 418.4 457.3 425.8 457.3 419.3 444.5 411.9"/>
    <polygon class="st21" points="444.5 411.9 457.3 419.3 477.6 407.6 464.8 400.1 444.5 411.9"/>
    <polygon class="st38" points="349.9 419.7 349.9 426.2 370.2 414.5 370.2 408 349.9 419.7"/>
    <polygon class="st38" points="337.1 412.3 337.1 418.8 349.9 426.2 349.9 419.7 337.1 412.3"/>
    <polygon class="st21" points="337.1 412.3 349.9 419.6 370.2 408 357.6 401 337.1 412.3"/>
    <polygon class="st38" points="430.8 434.6 430.8 441.1 451.1 429.4 451.1 422.9 430.8 434.6"/>
    <polygon class="st38" points="412.4 423.9 412.4 430.4 432.7 418.7 432.7 412.2 412.4 423.9"/>
    <polygon class="st38" points="399.6 416.5 399.6 423 412.4 430.4 412.4 423.9 399.6 416.5"/>
    <polygon class="st21" points="399.6 416.5 412.4 423.9 432.7 412.2 419.9 404.8 399.6 416.5"/>
    <polygon class="st21" points="354.8 422.6 367.6 430 387.9 418.3 375.1 410.8 354.8 422.6"/>
    <polygon class="st38" points="354.8 422.6 354.8 429.1 367.6 436.5 367.6 430 354.8 422.6"/>
    <polygon class="st38" points="341.6 444.6 341.6 451.1 361.9 439.4 361.9 432.9 341.6 444.6"/>
    <polygon class="st21" points="418 427.2 430.8 434.6 451.1 422.9 438.3 415.4 418 427.2"/>
    <polygon class="st38" points="418 427.2 418 433.7 430.8 441.1 430.8 434.6 418 427.2"/>
    <polygon class="st38" points="310.6 427.6 310.6 434.1 323.4 441.5 323.4 435 310.6 427.6"/>
    <polygon class="st38" points="323.4 435 323.4 441.5 343.7 429.8 343.7 423.3 323.4 435"/>
    <polygon class="st38" points="373.3 432.4 373.4 438.9 386.1 446.3 386.1 439.8 373.3 432.4"/>
    <polygon class="st38" points="386.1 439.8 386.1 446.3 406.4 434.6 406.4 428.1 386.1 439.8"/>
    <polygon class="st38" points="359.6 455.1 359.6 461.6 379.9 449.9 379.9 443.4 359.6 455.1"/>
    <polygon class="st38" points="328.8 437.2 328.8 443.7 341.6 451.1 341.6 444.6 328.8 437.2"/>
    <polygon class="st38" points="391.7 443 391.7 449.6 404.5 457 404.5 450.5 391.7 443"/>
    <polygon class="st38" points="404.5 450.5 404.5 457 424.8 445.3 424.8 438.7 404.5 450.5"/>
    <polygon class="st38" points="378 465.8 378 472.3 398.3 460.6 398.3 454 378 465.8"/>
    <polygon class="st21" points="346.8 447.7 359.6 455.1 379.9 443.4 367.2 435.9 346.8 447.7"/>
    <polygon class="st38" points="346.8 447.7 346.9 454.2 359.6 461.6 359.6 455.1 346.8 447.7"/>
    <polygon class="st38" points="420.3 448.6 420.3 455.1 432.2 462 432.1 455.5 420.3 448.6"/>
    <polygon class="st38" points="432.1 455.5 432.2 462 559.4 388.5 559.3 382 432.1 455.5"/>
    <polygon class="st21" points="420.3 448.6 432.1 455.5 559.3 382 547.5 375.1 420.3 448.6"/>
    <polygon class="st38" points="365.2 458.3 365.2 464.9 378 472.3 378 465.8 365.2 458.3"/>
    <polygon class="st21" points="365.2 458.3 378 465.8 398.3 454 385.5 446.6 365.2 458.3"/>
    <polygon class="st38" points="406.2 470.4 406.2 477 426.5 465.2 426.5 458.7 406.2 470.4"/>
    <polygon class="st38" points="393.4 463 393.4 469.5 406.2 477 406.2 470.4 393.4 463"/>
    <polygon class="st21" points="393.4 463 406.2 470.4 426.5 458.7 413.7 451.3 393.4 463"/>
    <polygon class="st21" points="512.8 329.9 525.6 337.3 545.9 325.6 533.1 318.2 512.8 329.9"/>
    <polygon class="st21" points="468.6 334.9 481.4 342.3 501.7 330.6 488.9 323.2 468.6 334.9"/>
    <polygon class="st21" points="531.4 339.7 544.1 347.1 564.5 335.4 551.7 328 531.4 339.7"/>
    <polygon class="st21" points="504.9 355 517.7 362.4 538 350.7 525.2 343.3 504.9 355"/>
    <polygon class="st21" points="407.5 391.4 420.3 398.8 440.7 387.1 427.9 379.6 407.5 391.4"/>
    <polygon class="st21" points="310.6 427.6 323.4 435 343.7 423.3 330.9 415.8 310.6 427.6"/>
    <polygon class="st21" points="373.3 432.4 386.1 439.8 406.4 428.1 393.7 420.6 373.3 432.4"/>
    <polygon class="st21" points="329 437.3 341.6 444.6 361.6 433.1 349 425.8 329 437.3"/>
    <polygon class="st21" points="391.7 443 404.5 450.5 424.8 438.7 412 431.3 391.7 443"/>
  </g>
  <g>
    <polygon class="st38" points="646.2 64.2 646.1 103.8 609.8 124.9 609.5 125.1 609.6 85.6 609.9 85.4 616.8 81.4 616.8 81.4 646.2 64.2"/>
    <polygon class="st43" points="609.9 85.4 609.6 85.6 609.3 85.4 609.5 85.2 609.9 85.4"/>
    <polygon class="st21" points="646.2 64.2 616.8 81.4 616.8 81.4 609.9 85.4 609.5 85.2 609.3 85.4 575.2 65.7 575.5 65.6 611.8 44.4 646.2 64.2"/>
    <polygon class="st55" points="609.6 85.6 609.5 125.1 575.1 105.2 575.2 65.7 609.3 85.4 609.6 85.6"/>
  </g>
  <g>
    <polygon class="st40" points="603.1 388.2 602.8 388.4 602.5 388.2 602.8 388 603.1 388.2"/>
    <g>
      <polygon class="st38" points="639.4 367.1 639.3 406.6 603 427.8 602.7 427.9 602.8 388.4 603.1 388.2 610 384.2 610 384.2 639.4 367.1"/>
      <polygon class="st21" points="639.4 367.1 610 384.2 610 384.2 603.1 388.2 602.8 388 602.5 388.2 568.4 368.5 568.7 368.4 605 347.2 639.4 367.1"/>
      <polygon class="st55" points="602.8 388.4 602.7 427.9 568.3 408.1 568.4 368.5 602.5 388.2 602.8 388.4"/>
    </g>
    <g>
      <polygon class="st38" points="869.5 131.4 869.5 149.5 852.8 159.2 852.7 159.3 852.8 141.2 852.9 141.1 856 139.3 856.1 139.3 869.5 131.4"/>
      <polygon class="st21" points="869.5 131.4 856.1 139.3 856 139.3 852.9 141.1 852.7 141 852.6 141.1 837 132.1 837.1 132 853.8 122.3 869.5 131.4"/>
      <polygon class="st55" points="852.8 141.2 852.7 159.3 836.9 150.2 837 132.1 852.6 141.1 852.8 141.2"/>
    </g>
    <g>
      <polygon class="st38" points="974.4 201.3 974.4 219.5 957.7 229.2 957.6 229.2 957.6 211.1 957.7 211 960.9 209.2 960.9 209.2 974.4 201.3"/>
      <polygon class="st21" points="974.4 201.3 960.9 209.2 960.9 209.2 957.7 211 957.6 211 957.5 211 941.9 202 942 201.9 958.6 192.2 974.4 201.3"/>
      <polygon class="st55" points="957.6 211.1 957.6 229.2 941.8 220.1 941.9 202 957.5 211 957.6 211.1"/>
    </g>
    <g>
      <polygon class="st38" points="1007 354.6 1007 372.7 990.3 382.4 990.2 382.5 990.2 364.3 990.4 364.3 993.5 362.4 993.5 362.4 1007 354.6"/>
      <polygon class="st21" points="1007 354.6 993.5 362.4 993.5 362.4 990.4 364.3 990.2 364.2 990.1 364.2 974.5 355.2 974.6 355.2 991.3 345.5 1007 354.6"/>
      <polygon class="st55" points="990.2 364.3 990.2 382.5 974.4 373.4 974.5 355.2 990.1 364.2 990.2 364.3"/>
    </g>
    <g>
      <polygon class="st38" points="839.5 452.6 839.4 470.7 822.8 480.4 822.7 480.5 822.7 462.4 822.8 462.3 826 460.4 826 460.4 839.5 452.6"/>
      <polygon class="st21" points="839.5 452.6 826 460.4 826 460.4 822.8 462.3 822.7 462.2 822.6 462.3 806.9 453.3 807.1 453.2 823.7 443.5 839.5 452.6"/>
      <polygon class="st55" points="822.7 462.4 822.7 480.5 806.9 471.4 806.9 453.3 822.6 462.3 822.7 462.4"/>
    </g>
    <g>
      <polygon class="st38" points="669.7 452.6 669.6 470.7 652.9 480.4 652.8 480.5 652.9 462.4 653 462.3 656.2 460.4 656.2 460.4 669.7 452.6"/>
      <polygon class="st21" points="669.7 452.6 656.2 460.4 656.2 460.4 653 462.3 652.8 462.2 652.7 462.3 637.1 453.3 637.2 453.2 653.9 443.5 669.7 452.6"/>
      <polygon class="st55" points="652.9 462.4 652.8 480.5 637.1 471.4 637.1 453.3 652.7 462.3 652.9 462.4"/>
    </g>
  </g>
  <g>
    <polygon class="st38" points="771.8 138 771.7 177.5 735.3 198.6 735.1 198.8 735.2 159.3 735.5 159.1 742.4 155.1 742.4 155.1 771.8 138"/>
    <polygon class="st15" points="735.5 159.1 735.2 159.3 734.8 159.1 735.1 158.9 735.5 159.1"/>
    <polygon class="st21" points="771.8 138 742.4 155.1 742.4 155.1 735.5 159.1 735.1 158.9 734.8 159.1 700.8 139.4 701.1 139.3 737.4 118.1 771.8 138"/>
    <polygon class="st55" points="735.2 159.3 735.1 198.8 700.7 179 700.8 139.4 734.8 159.1 735.2 159.3"/>
  </g>
  <g>
    <path class="st10" d="M424.8,271.4c6.1-1.6,11.2.6,11.3,10.1,0,10.5-3.9,18.8-13,26.3v7.2s-12.2,7-12.2,7v-6.2s-8.9,5.1-8.9,5.1v6.2s-12.2,7-12.2,7v-6.2s-9,5.2-9,5.2v-12.7s4.9-2.8,4.9-2.8v-42.9c-.1,0-5,2.8-5,2.8v-12.6s9-5.2,9-5.2v-6.5s12.2-7,12.2-7v6.5s8.9-5.1,8.9-5.1v-6.5s12.2-7,12.2-7v8c6.9-1.6,10.3,1.7,10.3,9.2,0,8.2-1.9,13.3-8.3,19.9ZM410.7,303.2c3.2-2.3,6.1-7,6.1-11.9,0-4.6-2.1-6.8-6.1-5-.3.1-.7.3-1,.5l-6.5,3.8v17s6.8-3.9,6.8-3.9c.3-.2.5-.3.8-.5M403,265v14.6s5.2-3,5.2-3c.9-.5,1.7-1.1,2.4-1.7,2.6-2.4,3.4-5.4,3.4-9.1,0-3.4-1.4-4.9-3.4-4.7-.7,0-1.4.3-2.2.8l-5.4,3.1"/>
    <path class="st10" d="M397.3,348.6c-3.1,0-6.2-.4-9.3-1.2-26.6-6.8-40.6-41.6-31.4-77.6,4.5-17.4,13.7-32.5,25.9-42.4,12.3-10,26.2-13.7,39.1-10.4,12.9,3.3,23.3,13.2,29.2,28,5.9,14.6,6.7,32.3,2.2,49.7-8.2,31.8-31.9,54-55.6,54ZM412.2,217.4c-9.7,0-19.6,3.8-28.7,11.3-11.9,9.8-20.9,24.5-25.3,41.6-9,35.1,4.5,69.1,30.2,75.7,2.9.8,5.9,1.1,8.9,1.1,23,0,46.1-21.8,54.1-52.8,4.4-17.1,3.6-34.3-2.1-48.7-5.7-14.2-15.7-23.8-28.1-27-2.9-.8-6-1.1-9-1.1Z"/>
  </g>
  <polygon class="st18" points="608 156.1 407.2 186.5 534.5 277.8 534.5 198.8 608 156.1"/>
  <path class="st51" d="M179.1,167.3h-51.1l13.9-22h82.5l-14.3,22h-31.1Z"/>
</svg>